<svg width="30" height="30" viewBox="0 0 30 30" fill="none" xmlns="http://www.w3.org/2000/svg">
<path d="M0.655933 14.0271L15.8354 0.852497C15.9519 0.752051 16.1006 0.695801 16.2573 0.695801H19.8131C20.1104 0.695801 20.247 1.06544 20.022 1.2583L5.95147 13.4726H29.464C29.6408 13.4726 29.7854 13.6172 29.7854 13.794V16.2047C29.7854 16.3815 29.6408 16.5262 29.464 16.5262H5.95549L20.026 28.7404C20.251 28.9373 20.1144 29.3029 19.8171 29.3029H16.1408C16.0644 29.3029 15.9881 29.2748 15.9318 29.2226L0.655933 15.9717C0.516841 15.8507 0.405317 15.7014 0.328892 15.5336C0.252467 15.3659 0.212919 15.1837 0.212919 14.9994C0.212919 14.815 0.252467 14.6329 0.328892 14.4651C0.405317 14.2974 0.516841 14.148 0.655933 14.0271V14.0271Z" fill="#1F1F1F"/>
</svg>
