<svg width="247" height="46" viewBox="0 0 247 46" fill="none" xmlns="http://www.w3.org/2000/svg">
<path d="M82.832 32V15.2H96.968V32H95.216V16.256L95.672 16.736H84.128L84.584 16.256V32H82.832ZM102.445 36.776C101.853 36.776 101.285 36.68 100.741 36.488C100.213 36.296 99.7567 36.008 99.3727 35.624L100.165 34.352C100.485 34.656 100.829 34.888 101.197 35.048C101.581 35.224 102.005 35.312 102.469 35.312C103.029 35.312 103.509 35.152 103.909 34.832C104.325 34.528 104.717 33.984 105.085 33.2L105.901 31.352L106.093 31.088L111.277 19.4H112.957L106.645 33.512C106.293 34.328 105.901 34.976 105.469 35.456C105.053 35.936 104.597 36.272 104.101 36.464C103.605 36.672 103.053 36.776 102.445 36.776ZM105.805 32.36L99.9967 19.4H101.773L106.909 30.968L105.805 32.36ZM118.012 32V20.432L118.444 20.888H113.236V19.4H124.492V20.888H119.284L119.716 20.432V32H118.012ZM131.769 32.12C130.457 32.12 129.305 31.848 128.313 31.304C127.321 30.744 126.545 29.984 125.985 29.024C125.425 28.048 125.145 26.936 125.145 25.688C125.145 24.44 125.409 23.336 125.937 22.376C126.481 21.416 127.217 20.664 128.145 20.12C129.089 19.56 130.145 19.28 131.313 19.28C132.497 19.28 133.545 19.552 134.457 20.096C135.385 20.624 136.113 21.376 136.641 22.352C137.169 23.312 137.433 24.424 137.433 25.688C137.433 25.768 137.425 25.856 137.409 25.952C137.409 26.032 137.409 26.12 137.409 26.216H126.441V24.944H136.497L135.825 25.448C135.825 24.536 135.625 23.728 135.225 23.024C134.841 22.304 134.313 21.744 133.641 21.344C132.969 20.944 132.193 20.744 131.313 20.744C130.449 20.744 129.673 20.944 128.985 21.344C128.297 21.744 127.761 22.304 127.377 23.024C126.993 23.744 126.801 24.568 126.801 25.496V25.76C126.801 26.72 127.009 27.568 127.425 28.304C127.857 29.024 128.449 29.592 129.201 30.008C129.969 30.408 130.841 30.608 131.817 30.608C132.585 30.608 133.297 30.472 133.953 30.2C134.625 29.928 135.201 29.512 135.681 28.952L136.641 30.056C136.081 30.728 135.377 31.24 134.529 31.592C133.697 31.944 132.777 32.12 131.769 32.12ZM149.485 30.512L149.101 30.968V19.4H150.805V30.968L150.349 30.512H157.381L156.925 30.968V19.4H158.629V32H141.205V19.4H142.909V30.968L142.477 30.512H149.485ZM168.871 32.12C167.559 32.12 166.407 31.848 165.415 31.304C164.423 30.744 163.647 29.984 163.087 29.024C162.527 28.048 162.247 26.936 162.247 25.688C162.247 24.44 162.511 23.336 163.039 22.376C163.583 21.416 164.319 20.664 165.247 20.12C166.191 19.56 167.247 19.28 168.415 19.28C169.599 19.28 170.647 19.552 171.559 20.096C172.487 20.624 173.215 21.376 173.743 22.352C174.271 23.312 174.535 24.424 174.535 25.688C174.535 25.768 174.527 25.856 174.511 25.952C174.511 26.032 174.511 26.12 174.511 26.216H163.543V24.944H173.599L172.927 25.448C172.927 24.536 172.727 23.728 172.327 23.024C171.943 22.304 171.415 21.744 170.743 21.344C170.071 20.944 169.295 20.744 168.415 20.744C167.551 20.744 166.775 20.944 166.087 21.344C165.399 21.744 164.863 22.304 164.479 23.024C164.095 23.744 163.903 24.568 163.903 25.496V25.76C163.903 26.72 164.111 27.568 164.527 28.304C164.959 29.024 165.551 29.592 166.303 30.008C167.071 30.408 167.943 30.608 168.919 30.608C169.687 30.608 170.399 30.472 171.055 30.2C171.727 29.928 172.303 29.512 172.783 28.952L173.743 30.056C173.183 30.728 172.479 31.24 171.631 31.592C170.799 31.944 169.879 32.12 168.871 32.12ZM183.587 32.12C182.339 32.12 181.219 31.848 180.227 31.304C179.251 30.744 178.483 29.984 177.923 29.024C177.363 28.048 177.083 26.936 177.083 25.688C177.083 24.424 177.363 23.312 177.923 22.352C178.483 21.392 179.251 20.64 180.227 20.096C181.219 19.552 182.339 19.28 183.587 19.28C184.659 19.28 185.627 19.488 186.491 19.904C187.355 20.32 188.035 20.944 188.531 21.776L187.259 22.64C186.827 22 186.291 21.528 185.651 21.224C185.011 20.92 184.315 20.768 183.563 20.768C182.667 20.768 181.859 20.976 181.139 21.392C180.419 21.792 179.851 22.36 179.435 23.096C179.019 23.832 178.811 24.696 178.811 25.688C178.811 26.68 179.019 27.544 179.435 28.28C179.851 29.016 180.419 29.592 181.139 30.008C181.859 30.408 182.667 30.608 183.563 30.608C184.315 30.608 185.011 30.456 185.651 30.152C186.291 29.848 186.827 29.384 187.259 28.76L188.531 29.624C188.035 30.44 187.355 31.064 186.491 31.496C185.627 31.912 184.659 32.12 183.587 32.12ZM193.996 32V20.432L194.428 20.888H189.22V19.4H200.476V20.888H195.268L195.7 20.432V32H193.996ZM202.94 32V19.4H208.508C209.932 19.4 211.052 19.672 211.868 20.216C212.7 20.76 213.116 21.56 213.116 22.616C213.116 23.64 212.724 24.432 211.94 24.992C211.156 25.536 210.124 25.808 208.844 25.808L209.18 25.304C210.684 25.304 211.788 25.584 212.492 26.144C213.196 26.704 213.548 27.512 213.548 28.568C213.548 29.656 213.148 30.504 212.348 31.112C211.564 31.704 210.34 32 208.676 32H202.94ZM204.596 30.656H208.604C209.676 30.656 210.484 30.488 211.028 30.152C211.588 29.8 211.868 29.24 211.868 28.472C211.868 27.704 211.62 27.144 211.124 26.792C210.628 26.44 209.844 26.264 208.772 26.264H204.596V30.656ZM204.596 24.992H208.388C209.364 24.992 210.108 24.808 210.62 24.44C211.148 24.072 211.412 23.536 211.412 22.832C211.412 22.128 211.148 21.6 210.62 21.248C210.108 20.896 209.364 20.72 208.388 20.72H204.596V24.992ZM217.541 32V19.4H219.245V29.408L227.669 19.4H229.181V32H227.477V21.968L219.077 32H217.541ZM242.201 32V27.464L242.513 27.824H238.241C236.625 27.824 235.361 27.472 234.449 26.768C233.537 26.064 233.081 25.04 233.081 23.696C233.081 22.256 233.569 21.184 234.545 20.48C235.521 19.76 236.825 19.4 238.457 19.4H243.761V32H242.201ZM232.985 32L236.441 27.152H238.217L234.833 32H232.985ZM242.201 26.96V20.384L242.513 20.888H238.505C237.337 20.888 236.425 21.112 235.769 21.56C235.129 22.008 234.809 22.736 234.809 23.744C234.809 25.616 236.001 26.552 238.385 26.552H242.513L242.201 26.96Z" fill="black"/>
<path fill-rule="evenodd" clip-rule="evenodd" d="M30.2079 0C24.8911 0.79878 20.6873 5.09815 19.9062 10.5357H30.2079V0Z" fill="#0B5563"/>
<path fill-rule="evenodd" clip-rule="evenodd" d="M30.0433 0C24.7266 0.79878 20.5227 5.09815 19.7417 10.5357H30.0433V0Z" fill="#0B5563"/>
<path fill-rule="evenodd" clip-rule="evenodd" d="M33.792 0V10.5357H44.0936C43.3126 5.09815 39.1087 0.79878 33.792 0Z" fill="#0B5563"/>
<path fill-rule="evenodd" clip-rule="evenodd" d="M33.6274 0V10.5357H43.929C43.148 5.09815 38.9442 0.79878 33.6274 0Z" fill="#0B5563"/>
<path fill-rule="evenodd" clip-rule="evenodd" d="M51.696 14.2014H12.3042C12.592 17.4784 13.644 20.5302 15.2766 23.1689C15.7761 23.2537 16.3137 23.2996 16.896 23.2996C24.448 23.2996 24.448 15.576 32.0001 15.576C39.552 15.576 39.552 23.2996 47.1041 23.2996C47.6865 23.2996 48.224 23.2537 48.7235 23.1689C50.3561 20.5302 51.4082 17.4784 51.6959 14.2014H51.696Z" fill="#0B5563"/>
<path fill-rule="evenodd" clip-rule="evenodd" d="M51.5315 14.2014H12.1396C12.4275 17.4784 13.4795 20.5302 15.1121 23.1689C15.6116 23.2537 16.1491 23.2996 16.7315 23.2996C24.2835 23.2996 24.2835 15.576 31.8355 15.576C39.3875 15.576 39.3875 23.2996 46.9395 23.2996C47.5219 23.2996 48.0595 23.2537 48.559 23.1689C50.1916 20.5302 51.2436 17.4784 51.5314 14.2014H51.5315Z" fill="#0B5563"/>
<path fill-rule="evenodd" clip-rule="evenodd" d="M47.104 23.2993C39.552 23.2993 39.552 15.5757 32 15.5757C24.448 15.5757 24.448 23.2993 16.896 23.2993C16.3136 23.2993 15.776 23.2534 15.2765 23.1686C9.29906 22.1539 8.76159 15.5757 1.792 15.5757C1.20643 15.5757 0.666285 15.6221 0.164551 15.7077C1.80018 32.2139 15.4292 45.0957 32.0001 45.0957C48.5709 45.0957 62.1999 32.2139 63.8356 15.7077C63.3337 15.6221 62.7936 15.5757 62.2081 15.5757C55.2385 15.5757 54.701 22.1539 48.7236 23.1686C48.2241 23.2534 47.6864 23.2993 47.104 23.2993Z" fill="#5299D3"/>
<path fill-rule="evenodd" clip-rule="evenodd" d="M46.9395 23.2993C39.3875 23.2993 39.3875 15.5757 31.8354 15.5757C24.2835 15.5757 24.2835 23.2993 16.7314 23.2993C16.149 23.2993 15.6115 23.2534 15.112 23.1686C9.13451 22.1539 8.59704 15.5757 1.62745 15.5757C1.04188 15.5757 0.501734 15.6221 0 15.7077C1.63563 32.2139 15.2647 45.0957 31.8355 45.0957C48.4063 45.0957 62.0354 32.2139 63.671 15.7077C63.1692 15.6221 62.6291 15.5757 62.0436 15.5757C55.074 15.5757 54.5364 22.1539 48.559 23.1686C48.0595 23.2534 47.5218 23.2993 46.9395 23.2993Z" fill="#5299D3"/>
</svg>
